<svg xmlns="http://www.w3.org/2000/svg" viewBox="0 0 1200 400" width="1200" height="400">
  <!-- Sky background -->
  <rect width="1200" height="400" fill="#e0f7fa"/>

  <!-- Buildings -->
  <rect x="50" y="150" width="100" height="250" fill="#2c3e50"/>
  <rect x="170" y="100" width="120" height="300" fill="#34495e"/>
  <rect x="320" y="120" width="90" height="280" fill="#1abc9c"/>
  <rect x="450" y="160" width="110" height="240" fill="#16a085"/>
  <rect x="590" y="110" width="100" height="290" fill="#2980b9"/>
  <rect x="710" y="130" width="130" height="270" fill="#3498db"/>
  <rect x="870" y="90" width="90" height="310" fill="#9b59b6"/>
  <rect x="1010" y="140" width="100" height="260" fill="#8e44ad"/>

  <!-- Windows (randomly placed for a "busy" look) -->
  <g fill="#ecf0f1">
    <rect x="75" y="170" width="15" height="20"/>
    <rect x="75" y="200" width="15" height="20"/>
    <rect x="75" y="230" width="15" height="20"/>
    <rect x="95" y="190" width="15" height="20"/>
    <rect x="95" y="220" width="15" height="20"/>
    <rect x="115" y="180" width="15" height="20"/>
    <rect x="115" y="210" width="15" height="20"/>
    <rect x="170" y="120" width="20" height="20"/>
    <rect x="170" y="150" width="20" height="20"/>
    <rect x="170" y="180" width="20" height="20"/>
    <rect x="230" y="130" width="18" height="18"/>
    <rect x="230" y="160" width="18" height="18"/>
    <rect x="250" y="140" width="18" height="18"/>
    <rect x="250" y="170" width="18" height="18"/>
    <rect x="290" y="150" width="17" height="17"/>
    <rect x="290" y="180" width="17" height="17"/>
    <rect x="310" y="160" width="17" height="17"/>
    <rect x="310" y="190" width="17" height="17"/>
    <rect x="380" y="130" width="20" height="20"/>
    <rect x="380" y="160" width="20" height="20"/>
    <rect x="380" y="190" width="20" height="20"/>
    <rect x="440" y="170" width="16" height="16"/>
    <rect x="460" y="180" width="16" height="16"/>
    <rect x="460" y="210" width="16" height="16"/>
    <rect x="500" y="140" width="18" height="18"/>
    <rect x="500" y="170" width="18" height="18"/>
    <rect x="520" y="150" width="18" height="18"/>
    <rect x="520" y="180" width="18" height="18"/>
    <rect x="570" y="110" width="20" height="20"/>
    <rect x="590" y="180" width="20" height="20"/>
    <rect x="610" y="190" width="20" height="20"/>
    <rect x="630" y="160" width="20" height="20"/>
    <rect x="710" y="120" width="18" height="18"/>
    <rect x="730" y="150" width="18" height="18"/>
    <rect x="750" y="140" width="18" height="18"/>
    <rect x="750" y="170" width="18" height="18"/>
    <rect x="800" y="180" width="15" height="15"/>
    <rect x="820" y="160" width="15" height="15"/>
    <rect x="840" y="150" width="15" height="15"/>
    <rect x="880" y="130" width="18" height="18"/>
    <rect x="880" y="160" width="18" height="18"/>
    <rect x="920" y="140" width="17" height="17"/>
    <rect x="920" y="170" width="17" height="17"/>
    <rect x="970" y="160" width="16" height="16"/>
    <rect x="990" y="150" width="16" height="16"/>
    <rect x="1010" y="180" width="20" height="20"/>
    <rect x="1030" y="160" width="20" height="20"/>
  </g>

  <!-- Street -->
  <rect x="0" y="350" width="1200" height="50" fill="#34495e"/>

  <!-- Cars (simple representation) -->
  <rect x="200" y="365" width="60" height="25" fill="#f39c12"/>
  <rect x="350" y="365" width="70" height="25" fill="#e74c3c"/>
  <rect x="500" y="365" width="50" height="25" fill="#3498db"/>
  <rect x="650" y="365" width="65" height="25" fill="#2ecc71"/>
  <rect x="800" y="365" width="60" height="25" fill="#9b59b6"/>
  <rect x="950" y="365" width="55" height="25" fill="#f1c40f"/>
</svg>
